<svg xmlns="http://www.w3.org/2000/svg" viewBox="0 0 16 16" height="16" width="16">
   <path d="M 7.8476562 0.001953125 A 7.998593 7.998593 0 0 0 7.9960938 15.998047 A 8.0095903 8.0095903 0 0 0 15.998047 8.0019531 L 15.998047 7.3574219 A 0.99982405 0.99982405 0 0 0 13.998047 7.3574219 L 13.998047 8 A 6.006943 6.006943 0 0 1 8 13.998047 A 5.9989444 5.9989444 0 0 1 8 2.0019531 A 5.9609511 5.9609511 0 0 1 10.4375 2.5195312 A 0.99982405 0.99982405 0 0 0 11.251953 0.69335938 A 7.9406026 7.9406026 0 0 0 8 0.001953125 A 7.998593 7.998593 0 0 0 7.8476562 0.001953125 z M 14.970703 1.40625 A 1.0000266 1.0000266 0 0 0 14.292969 1.6972656 L 8 7.9960938 L 6.609375 6.6035156 A 0.99982405 0.99982405 0 1 0 5.1953125 8.0175781 L 7.2949219 10.117188 A 0.99982405 0.99982405 0 0 0 8.0019531 10.410156 A 0.99982405 0.99982405 0 0 0 8.7089844 10.117188 L 15.707031 3.1113281 A 1.0000266 1.0000266 0 0 0 14.970703 1.40625 z" />
</svg>
