<svg xmlns="http://www.w3.org/2000/svg" viewBox="0 0 16 16" height="16" width="16">
   <path d="M 7.6679688 0.0078125 A 8.0000001 8.0000001 0 0 0 8 16 A 8.0000001 8.0000001 0 0 0 16 8 A 8.0000001 8.0000001 0 0 0 7.6679688 0.0078125 z M 8 2 A 6 6 0 0 1 14 8 A 6 6 0 1 1 8 2 z M 10.835938 4.1582031 A 0.99999999 0.99999999 0 0 0 10.119141 4.4648438 L 8 6.5839844 L 5.8789062 4.4667969 A 0.99999999 0.99999999 0 1 0 4.4648438 5.8808594 L 6.5839844 8 L 4.4648438 10.121094 A 1.0002026 1.0002026 0 0 0 5.8808594 11.535156 L 8 9.4140625 L 10.119141 11.529297 A 0.99999999 0.99999999 0 0 0 11.830078 10.830078 A 0.99999999 0.99999999 0 0 0 11.535156 10.119141 L 9.4160156 8 L 11.535156 5.8789062 A 0.99999999 0.99999999 0 0 0 10.835938 4.1582031 z" />
</svg>
